<svg width="24" height="24" viewBox="0 0 24 24" fill="none" xmlns="http://www.w3.org/2000/svg">
<g opacity="1">
<path fill-rule="evenodd" clip-rule="evenodd" d="M16.34 1.99927H7.67C4.28 1.99927 2 4.37927 2 7.91927V16.0903C2 19.6203 4.28 21.9993 7.67 21.9993H16.34C19.73 21.9993 22 19.6203 22 16.0903V7.91927C22 4.37927 19.73 1.99927 16.34 1.99927ZM8.41668 8.76575C8.22053 8.67717 8.21104 8.40509 8.38821 7.94951C8.55905 7.52557 8.93237 7.08265 9.50817 6.62074C10.0903 6.15251 10.935 5.9184 12.0423 5.9184C13.4027 5.9184 14.4025 6.24426 15.0415 6.89599C15.6806 7.54139 16.0001 8.40509 16.0001 9.48708C16.0001 10.3919 15.4718 11.4296 14.4151 12.6002C13.3648 13.7644 12.8396 14.7832 12.8396 15.6564V15.8747C12.8396 16.1594 12.6972 16.3018 12.4125 16.3018H11.5962C11.3115 16.3018 11.1691 16.1594 11.1691 15.8747V15.5235C11.1691 14.4541 11.6627 13.3563 12.6498 12.23C13.6432 11.0974 14.1399 10.1641 14.1399 9.43014C14.1399 8.65819 13.9595 8.11719 13.5989 7.80714C13.2382 7.4971 12.7415 7.34207 12.1088 7.34207C11.4127 7.34207 10.8876 7.46862 10.5332 7.72172C10.1852 7.97482 9.91945 8.31967 9.73595 8.75626C9.59042 9.09795 9.38478 9.20868 9.11903 9.08845L8.41668 8.76575ZM11.919 19.0036C12.4558 19.0036 12.8909 18.5684 12.8909 18.0317C12.8909 17.4949 12.4558 17.0598 11.919 17.0598C11.3822 17.0598 10.9471 17.4949 10.9471 18.0317C10.9471 18.5684 11.3822 19.0036 11.919 19.0036Z" fill="#0C0C0C"/>
</g>
</svg>
