<svg width="33" height="19" viewBox="0 0 33 19" fill="none" xmlns="http://www.w3.org/2000/svg">
<g filter="url(#filter0_i_189_1129)">
<path d="M23.5 0.5C28.46 0.5 32.5 4.535 32.5 9.5C32.5 14.465 28.46 18.5 23.5 18.5H9.5C4.543 18.5 0.5 14.457 0.5 9.5C0.5 4.543 4.543 0.5 9.5 0.5H23.5ZM9.5 2.5C5.621 2.5 2.5 5.621 2.5 9.5C2.5 13.379 5.621 16.5 9.5 16.5C13.379 16.5 16.5 13.379 16.5 9.5C16.5 5.621 13.379 2.5 9.5 2.5Z" fill="white"/>
<path d="M9.5 2.5C5.621 2.5 2.5 5.621 2.5 9.5C2.5 13.379 5.621 16.5 9.5 16.5C13.379 16.5 16.5 13.379 16.5 9.5C16.5 5.621 13.379 2.5 9.5 2.5Z" fill="#0C0C0C"/>
</g>
<defs>
<filter id="filter0_i_189_1129" x="0.5" y="0.5" width="32" height="22" filterUnits="userSpaceOnUse" color-interpolation-filters="sRGB">
<feFlood flood-opacity="0" result="BackgroundImageFix"/>
<feBlend mode="normal" in="SourceGraphic" in2="BackgroundImageFix" result="shape"/>
<feColorMatrix in="SourceAlpha" type="matrix" values="0 0 0 0 0 0 0 0 0 0 0 0 0 0 0 0 0 0 127 0" result="hardAlpha"/>
<feOffset dy="4"/>
<feGaussianBlur stdDeviation="2"/>
<feComposite in2="hardAlpha" operator="arithmetic" k2="-1" k3="1"/>
<feColorMatrix type="matrix" values="0 0 0 0 0.23112 0 0 0 0 0.23112 0 0 0 0 0.23112 0 0 0 0.25 0"/>
<feBlend mode="normal" in2="shape" result="effect1_innerShadow_189_1129"/>
</filter>
</defs>
</svg>
