<svg width="10" height="16" viewBox="0 0 10 16" fill="none" xmlns="http://www.w3.org/2000/svg">
<path opacity="0.6" d="M3.18182 10.6392V10.3977C3.18655 9.56913 3.25994 8.90862 3.40199 8.41619C3.54877 7.92377 3.76184 7.52604 4.04119 7.22301C4.32055 6.91998 4.65672 6.64536 5.04972 6.39915C5.34328 6.20975 5.60606 6.01326 5.83807 5.80966C6.07008 5.60606 6.25474 5.38116 6.39205 5.13494C6.52936 4.884 6.59801 4.60464 6.59801 4.29688C6.59801 3.97017 6.51989 3.68371 6.36364 3.4375C6.20739 3.19129 5.99669 3.00189 5.73153 2.86932C5.47112 2.73674 5.18229 2.67045 4.86506 2.67045C4.55729 2.67045 4.2661 2.73911 3.99148 2.87642C3.71686 3.009 3.49195 3.20786 3.31676 3.47301C3.14157 3.73343 3.04688 4.05777 3.03267 4.44602H0.134943C0.158617 3.49905 0.38589 2.7178 0.816761 2.10227C1.24763 1.48201 1.81818 1.02036 2.52841 0.717329C3.23864 0.409564 4.02225 0.255681 4.87926 0.255681C5.8215 0.255681 6.65483 0.411931 7.37926 0.724431C8.10369 1.0322 8.67188 1.47964 9.08381 2.06676C9.49574 2.65388 9.7017 3.36174 9.7017 4.19034C9.7017 4.74432 9.60938 5.23674 9.42472 5.66761C9.24479 6.09375 8.99148 6.47254 8.66477 6.80398C8.33807 7.13068 7.95218 7.42661 7.5071 7.69176C7.13305 7.9143 6.82528 8.14631 6.58381 8.38778C6.34706 8.62926 6.16951 8.90862 6.05114 9.22585C5.9375 9.54309 5.87831 9.93371 5.87358 10.3977V10.6392H3.18182ZM4.58807 15.1847C4.11458 15.1847 3.70975 15.0189 3.37358 14.6875C3.04214 14.3513 2.87879 13.9489 2.88352 13.4801C2.87879 13.0161 3.04214 12.6184 3.37358 12.2869C3.70975 11.9555 4.11458 11.7898 4.58807 11.7898C5.03788 11.7898 5.43324 11.9555 5.77415 12.2869C6.11506 12.6184 6.28788 13.0161 6.29261 13.4801C6.28788 13.7926 6.20502 14.0791 6.04403 14.3395C5.88778 14.5952 5.68182 14.8011 5.42614 14.9574C5.17045 15.1089 4.8911 15.1847 4.58807 15.1847Z" fill="white"/>
</svg>
