<svg width="30" height="30" viewBox="0 0 30 30" fill="none" xmlns="http://www.w3.org/2000/svg">
<path d="M18.5731 21.7565C19.2976 21.0447 18.9067 19.4098 17.7231 17.5212C18.1533 17.4542 18.5554 17.3518 18.8596 17.1949C19.954 16.6311 20.693 15.6037 21.2524 14.541C21.8537 13.4009 22.2573 12.1477 23.042 11.1096C23.1745 10.9341 23.307 10.7768 23.439 10.6288C25.132 10.8313 26.4836 11.1944 26.4836 11.1944L27 9.88486C26.3481 9.65156 25.6798 9.46687 25.0005 9.33229C25.4166 9.09628 25.6881 9.02272 25.6881 9.02272L25.1987 7.70252C24.414 8.0335 23.7772 8.52183 23.244 9.10652C21.251 8.99526 19.244 9.39141 17.6606 10.6167C16.47 11.5384 15.6657 12.8162 14.909 14.0945C14.2384 13.4381 13.5244 12.8274 12.7719 12.2664C12.9146 12.0323 13.0676 11.8219 13.2323 11.6594C14.2274 10.6818 15.5402 10.0566 16.4014 8.938C18.2116 6.589 16.8876 2.90676 15.3984 1C15.1316 1.2565 14.6902 1.63031 14.3581 1.92545C15.941 3.54312 17.0481 6.37533 15.8076 8.49157C15.1143 9.67445 13.8332 10.4165 12.9375 11.4327C12.7826 11.6091 12.644 11.8326 12.5185 12.0793C10.1761 10.403 8.02636 9.72845 7.17448 10.5654C7.09022 10.6521 7.02058 10.7517 6.96828 10.8606L6.96501 10.8573L6.94215 10.9239C6.91043 10.9961 6.8815 11.071 6.86191 11.1529L1 28L18.1038 22.033L18.0991 22.0283C18.2829 21.9692 18.4448 21.8822 18.5731 21.7565ZM4.40238 25.827L2.97481 25.1631L3.93819 22.3933L8.35666 24.4472L4.40238 25.827ZM12.3105 23.0678L4.9025 19.6235L5.86587 16.8541L11.4017 19.6267C8.09727 17.4807 6.82925 14.0838 6.82925 14.0838L7.15862 13.1374C7.74411 14.6154 9.03219 16.4561 10.8022 18.1934C12.5871 19.9466 14.4789 21.2165 15.9909 21.7839L12.3105 23.0678ZM15.1558 14.3441C15.9293 13.2375 16.7266 12.1207 17.8351 11.3261C18.8904 10.5692 20.6035 10.4309 22.2274 10.5217C21.6788 11.4779 21.2734 12.5388 20.9095 13.5578C20.4696 14.7914 19.8799 16.0707 18.7555 16.8271C18.4523 17.031 18.0273 17.18 17.5734 17.2903C16.9496 16.3365 16.1313 15.3282 15.1558 14.3441Z" fill="url(#paint0_linear_730_1610)"/>
<path d="M11.438 10.1692C11.9154 10.1692 10.4844 8.78284 10.7235 7.56698C11.64 7.49858 13.735 7.89925 12.5156 6.2744C13.8951 6.51008 14.6096 5.51096 13.3073 4.56406C13.7408 4.59363 14.4143 3.80062 13.9308 3.70033C12.3817 3.38193 11.7753 4.19481 12.7585 5.36724C11.7248 5.18054 10.8821 5.64683 11.6586 6.69401C8.67375 6.33309 10.372 10.1692 11.438 10.1692ZM21.6854 8.93719C22.1327 8.74125 21.3739 7.44682 21.1271 7.11594C23.0149 6.91999 22.9435 6.37422 21.7597 5.20503C24.978 5.30993 21.8593 3.53535 22.2966 2.83292C22.6753 2.22383 23.8371 2.86249 23.7295 2.52329C23.3665 1.38876 19.9234 2.1559 22.1022 4.2743C20.2006 4.31035 20.0182 4.91343 21.4353 6.16349C18.9669 6.18983 20.9809 9.24497 21.6854 8.93719ZM29.8559 13.5081C29.1023 13.7128 28.9861 13.6361 29.0866 14.364C27.346 13.5867 25.5044 12.5058 26.6219 15.3696C24.645 14.2277 24.7436 15.2277 24.374 16.8733C23.8929 16.5097 23.2093 15.5512 23.2093 15.5512L22.4852 16.1478C22.4852 16.1478 23.8119 17.963 24.4669 17.86C25.0428 17.7699 25.3562 16.7139 25.3881 15.7832C27.2221 16.5341 28.1 16.6344 27.2612 14.4384C28.7274 15.2374 30.5252 15.9422 29.8559 13.5081ZM3.34761 5.28775L4.69475 6.59512L3.34761 7.90202L2 6.59512L3.34761 5.28775ZM6.57492 10.7229L5.22684 12.0298L3.87923 10.7219L5.22731 9.41457L6.57492 10.7229ZM8.66899 3.23728L10.0161 4.54418L8.66851 5.85201L7.32137 4.54418L8.66899 3.23728ZM23.3365 21.484L21.9884 20.1767L23.3355 18.8688L24.6836 20.1762L23.3365 21.484ZM20.3326 25.9676L18.9854 24.6607L20.3326 23.3533L21.6802 24.6607L20.3326 25.9676ZM26.2432 27L24.8951 25.6926L26.2418 24.3848L27.5899 25.6922L26.2432 27ZM27.5903 21.0459L26.2432 19.7386L27.5903 18.4317L28.9375 19.7386L27.5903 21.0459ZM25.3415 4.62367L26.6886 5.93057L25.341 7.23794L23.9938 5.93057L25.3415 4.62367Z" fill="url(#paint1_linear_730_1610)"/>
<defs>
<linearGradient id="paint0_linear_730_1610" x1="1" y1="14.5" x2="27" y2="14.5" gradientUnits="userSpaceOnUse">
<stop stop-color="#B0E7FF"/>
<stop offset="1" stop-color="#F5C4FF"/>
</linearGradient>
<linearGradient id="paint1_linear_730_1610" x1="2" y1="14.5" x2="30" y2="14.5" gradientUnits="userSpaceOnUse">
<stop stop-color="#B0E7FF"/>
<stop offset="1" stop-color="#F5C4FF"/>
</linearGradient>
</defs>
</svg>
