<svg width="30" height="30" viewBox="0 0 30 30" fill="none" xmlns="http://www.w3.org/2000/svg">
<rect width="30" height="30" rx="10" fill="#1B1E23"/>
<path d="M18.1662 17.9169C18.9331 17.4907 18.8337 15.8482 17.945 14.2457C17.5637 13.5557 17.095 12.9969 16.6262 12.6063C16.0657 13.0223 15.3867 13.2478 14.6887 13.2501C13.9896 13.2485 13.3095 13.0229 12.7481 12.6063C12.2793 12.9969 11.8118 13.5563 11.4293 14.2457C10.54 15.8476 10.4418 17.4907 11.2106 17.9169C11.5531 18.1119 11.9143 17.9657 12.2868 17.6069C12.2171 17.9934 12.1821 18.3854 12.1825 18.7782C12.1825 20.6144 12.895 22.0982 13.7718 22.0982C14.3006 22.0982 14.5625 21.5576 14.6881 20.7307C14.8131 21.5519 15.0756 22.0982 15.6006 22.0982C16.4737 22.0982 17.1918 20.6138 17.1918 18.7782C17.1918 18.3657 17.1531 17.9719 17.0868 17.6076C17.4618 17.9669 17.8218 18.1157 18.1656 17.9182L18.1662 17.9169ZM14.6875 12.6251C15.0421 12.6304 15.3942 12.5651 15.7233 12.433C16.0525 12.3009 16.352 12.1047 16.6046 11.8558C16.8572 11.6069 17.0578 11.3102 17.1946 10.983C17.3315 10.6558 17.4019 10.3047 17.4018 9.95005C17.4016 9.59541 17.331 9.24433 17.1939 8.91725C17.0568 8.59017 16.8561 8.29362 16.6033 8.04486C16.3505 7.79611 16.0508 7.60011 15.7216 7.46827C15.3923 7.33643 15.0402 7.27139 14.6856 7.27694C13.9835 7.28792 13.3138 7.5746 12.8213 8.07509C12.3287 8.57558 12.0528 9.24971 12.053 9.95192C12.0533 10.6541 12.3297 11.3281 12.8226 11.8282C13.3155 12.3284 13.9853 12.6146 14.6875 12.6251ZM20.0587 14.3213C20.6298 14.3046 21.172 14.066 21.5701 13.6561C21.9681 13.2463 22.1908 12.6974 22.1908 12.126C22.1908 11.5546 21.9681 11.0058 21.5701 10.5959C21.172 10.186 20.6298 9.94738 20.0587 9.93069C19.4763 9.93077 18.9178 10.1622 18.506 10.5741C18.0943 10.986 17.863 11.5445 17.8631 12.1269C17.8632 12.7093 18.0946 13.2678 18.5065 13.6796C18.9184 14.0914 19.4769 14.3226 20.0593 14.3226L20.0587 14.3213ZM22.7337 15.6526C22.42 15.0851 22.0362 14.6263 21.6512 14.3057C21.1907 14.6469 20.6331 14.832 20.06 14.8338C19.5875 14.8338 19.1475 14.7044 18.7625 14.4901C19.0725 15.1732 19.2643 15.8651 19.3 16.4838C19.3587 17.4313 19.0625 18.1338 18.47 18.4619C18.3431 18.5319 18.205 18.5793 18.0618 18.6019C18.0262 18.8469 18.0018 19.1019 18.0018 19.3707C18.0018 20.8788 18.5862 22.0969 19.3068 22.0969C19.7406 22.0969 19.9568 21.6532 20.0593 20.9744C20.1612 21.6494 20.3768 22.0969 20.8093 22.0969C21.525 22.0969 22.1156 20.8782 22.1156 19.3719C22.1156 19.0326 22.0825 18.7094 22.0281 18.4094C22.3356 18.7051 22.6318 18.8269 22.9143 18.6644C23.5437 18.3144 23.4625 16.9657 22.7331 15.6519L22.7337 15.6526ZM9.31621 14.3213C9.75029 14.3211 10.1745 14.1921 10.5353 13.9508C10.8961 13.7094 11.1773 13.3665 11.3432 12.9654C11.5092 12.5643 11.5525 12.123 11.4676 11.6973C11.3828 11.2716 11.1736 10.8806 10.8666 10.5738C10.5596 10.2669 10.1685 10.058 9.74272 9.9734C9.31697 9.8888 8.87569 9.93235 8.47468 10.0985C8.07367 10.2647 7.73093 10.546 7.4898 10.907C7.24866 11.2679 7.11996 11.6922 7.11996 12.1263C7.12013 12.7087 7.35157 13.2673 7.76341 13.6791C8.17525 14.091 8.73378 14.3224 9.31621 14.3226V14.3213ZM10.9006 18.4601C9.90559 17.9069 9.81434 16.2576 10.6156 14.4888C10.2196 14.7137 9.77226 14.8327 9.31684 14.8344C8.71934 14.8344 8.17184 14.6344 7.72309 14.3057C7.33871 14.6257 6.95559 15.0844 6.64059 15.6513C5.91121 16.9663 5.83121 18.3151 6.46121 18.6638C6.74246 18.8251 7.03934 18.7044 7.34496 18.4101C7.28935 18.7275 7.26112 19.0491 7.26059 19.3713C7.26059 20.8788 7.84496 22.0963 8.56559 22.0963C8.99934 22.0963 9.21559 21.6526 9.31809 20.9744C9.42121 21.6494 9.63684 22.0969 10.0681 22.0969C10.785 22.0969 11.3743 20.8782 11.3743 19.3719C11.3743 19.1013 11.3493 18.8457 11.3137 18.6007C11.169 18.5781 11.0294 18.5303 10.9012 18.4594L10.9006 18.4601Z" fill="url(#paint0_linear_182_734)"/>
<defs>
<linearGradient id="paint0_linear_182_734" x1="6.0365" y1="14.6874" x2="23.338" y2="14.6874" gradientUnits="userSpaceOnUse">
<stop stop-color="#B0E7FF"/>
<stop offset="1" stop-color="#F5C4FF"/>
</linearGradient>
</defs>
</svg>
