<svg width="44" height="43" viewBox="0 0 44 43" fill="none" xmlns="http://www.w3.org/2000/svg">
<rect x="0.5" width="43" height="43" rx="10" fill="#1B1E23"/>
<path d="M12.625 10.75C12.625 9.75544 13.0201 8.80161 13.7233 8.09835C14.4266 7.39509 15.3804 7 16.375 7H27.625C28.6196 7 29.5734 7.39509 30.2766 8.09835C30.9799 8.80161 31.375 9.75544 31.375 10.75V33.25C31.375 34.2446 30.9799 35.1984 30.2766 35.9016C29.5734 36.6049 28.6196 37 27.625 37H16.375C15.3804 37 14.4266 36.6049 13.7233 35.9016C13.0201 35.1984 12.625 34.2446 12.625 33.25V10.75ZM23.875 31.375C23.875 30.8777 23.6775 30.4008 23.3258 30.0492C22.9742 29.6975 22.4973 29.5 22 29.5C21.5027 29.5 21.0258 29.6975 20.6742 30.0492C20.3225 30.4008 20.125 30.8777 20.125 31.375C20.125 31.8723 20.3225 32.3492 20.6742 32.7008C21.0258 33.0525 21.5027 33.25 22 33.25C22.4973 33.25 22.9742 33.0525 23.3258 32.7008C23.6775 32.3492 23.875 31.8723 23.875 31.375Z" fill="url(#paint0_linear_189_1396)"/>
<defs>
<linearGradient id="paint0_linear_189_1396" x1="12.625" y1="22" x2="31.375" y2="22" gradientUnits="userSpaceOnUse">
<stop stop-color="#B0E7FF"/>
<stop offset="1" stop-color="#F5C4FF"/>
</linearGradient>
</defs>
</svg>
