<svg xmlns="http://www.w3.org/2000/svg" width="20" height="20" fill="none"><path fill="#2FACFF" fill-rule="evenodd" d="M14.34 0H5.67C2.28 0 0 2.38 0 5.92v8.17C0 17.62 2.28 20 5.67 20h8.67c3.39 0 5.66-2.38 5.66-5.91V5.92C20 2.38 17.73 0 14.34 0M6.417 6.765q-.294-.133-.029-.817.256-.635 1.12-1.328.873-.703 2.534-.703 2.04 0 3 .978.958.968.958 2.591 0 1.358-1.585 3.113-1.575 1.746-1.575 3.056v.219q0 .426-.428.427h-.816q-.427 0-.427-.427v-.352q0-1.604 1.48-3.293 1.49-1.7 1.49-2.8 0-1.158-.54-1.623t-1.49-.465q-1.044 0-1.576.38a2.4 2.4 0 0 0-.797 1.034q-.218.513-.617.332zm3.502 10.238a.972.972 0 1 0 0-1.944.972.972 0 0 0 0 1.943" clip-rule="evenodd"/></svg>