<svg width="24" height="24" viewBox="0 0 24 24" fill="none" xmlns="http://www.w3.org/2000/svg">
<g opacity="0.6">
<path fill-rule="evenodd" clip-rule="evenodd" d="M16.3399 1.99921H7.66988C4.27988 1.99921 1.99988 4.37921 1.99988 7.91921V16.0902C1.99988 19.6202 4.27988 21.9992 7.66988 21.9992H16.3399C19.7299 21.9992 21.9999 19.6202 21.9999 16.0902V7.91921C21.9999 4.37921 19.7299 1.99921 16.3399 1.99921ZM8.41656 8.76569C8.22041 8.67711 8.21091 8.40503 8.38808 7.94945C8.55892 7.52551 8.93224 7.08259 9.50804 6.62068C10.0902 6.15245 10.9349 5.91833 12.0422 5.91833C13.4026 5.91833 14.4023 6.2442 15.0414 6.89593C15.6805 7.54133 16 8.40503 16 9.48702C16 10.3919 15.4717 11.4296 14.415 12.6001C13.3646 13.7644 12.8395 14.7831 12.8395 15.6563V15.8746C12.8395 16.1593 12.6971 16.3017 12.4123 16.3017H11.5961C11.3114 16.3017 11.169 16.1593 11.169 15.8746V15.5234C11.169 14.4541 11.6625 13.3563 12.6496 12.23C13.643 11.0974 14.1397 10.1641 14.1397 9.43008C14.1397 8.65813 13.9594 8.11713 13.5987 7.80708C13.2381 7.49704 12.7414 7.34201 12.1086 7.34201C11.4126 7.34201 10.8874 7.46856 10.5331 7.72166C10.1851 7.97476 9.91933 8.31961 9.73583 8.7562C9.5903 9.09788 9.38466 9.20862 9.11891 9.08839L8.41656 8.76569ZM11.9189 19.0035C12.4556 19.0035 12.8908 18.5684 12.8908 18.0316C12.8908 17.4948 12.4556 17.0597 11.9189 17.0597C11.3821 17.0597 10.947 17.4948 10.947 18.0316C10.947 18.5684 11.3821 19.0035 11.9189 19.0035Z" fill="#0C0C0C"/>
</g>
</svg>
