<svg width="43" height="43" viewBox="0 0 43 43" fill="none" xmlns="http://www.w3.org/2000/svg">
<mask id="mask0_169_1296" style="mask-type:alpha" maskUnits="userSpaceOnUse" x="0" y="0" width="43" height="43">
<rect width="43" height="43" rx="10" fill="#D9D9D9"/>
</mask>
<g mask="url(#mask0_169_1296)">
<rect width="43" height="43" rx="10" fill="#1B1E23"/>
</g>
<path d="M34.3085 21.3777C33.0657 15.7592 31.1954 12.7604 28.421 11.9412C27.8378 11.7701 27.2328 11.6847 26.6251 11.6875C25.8217 11.6875 25.1221 11.8832 24.3821 12.0906C23.4903 12.3408 22.4772 12.625 21.0001 12.625C19.5229 12.625 18.5092 12.3414 17.6157 12.0912C16.8751 11.8832 16.176 11.6875 15.3751 11.6875C14.7466 11.6853 14.1209 11.7705 13.5159 11.9406C10.7561 12.7563 8.88697 15.7539 7.62604 21.3742C6.27018 27.4223 6.93756 31.2408 9.49752 32.1268C9.84842 32.2505 10.2176 32.3143 10.5897 32.3154C12.3434 32.3154 13.7497 30.8547 14.7106 29.6588C15.7963 28.3053 17.0672 27.6186 21.0001 27.6186C24.5128 27.6186 25.9665 28.0949 27.2221 29.6588C28.0114 30.642 28.7573 31.3299 29.5014 31.7629C30.4911 32.3383 31.4801 32.466 32.4405 32.1361C33.9534 31.6199 34.8206 30.2553 35.0186 28.0791C35.1692 26.4104 34.9372 24.2184 34.3085 21.3777ZM18.1876 21.0625H16.3126V22.9375C16.3126 23.1861 16.2138 23.4246 16.038 23.6004C15.8622 23.7762 15.6237 23.875 15.3751 23.875C15.1264 23.875 14.888 23.7762 14.7121 23.6004C14.5363 23.4246 14.4376 23.1861 14.4376 22.9375V21.0625H12.5626C12.3139 21.0625 12.0755 20.9637 11.8996 20.7879C11.7238 20.6121 11.6251 20.3736 11.6251 20.125C11.6251 19.8764 11.7238 19.6379 11.8996 19.4621C12.0755 19.2863 12.3139 19.1875 12.5626 19.1875H14.4376V17.3125C14.4376 17.0639 14.5363 16.8254 14.7121 16.6496C14.888 16.4738 15.1264 16.375 15.3751 16.375C15.6237 16.375 15.8622 16.4738 16.038 16.6496C16.2138 16.8254 16.3126 17.0639 16.3126 17.3125V19.1875H18.1876C18.4362 19.1875 18.6747 19.2863 18.8505 19.4621C19.0263 19.6379 19.1251 19.8764 19.1251 20.125C19.1251 20.3736 19.0263 20.6121 18.8505 20.7879C18.6747 20.9637 18.4362 21.0625 18.1876 21.0625ZM23.1094 21.2969C22.8777 21.2969 22.6511 21.2282 22.4584 21.0994C22.2657 20.9706 22.1155 20.7876 22.0268 20.5735C21.9381 20.3593 21.9149 20.1237 21.9601 19.8964C22.0053 19.6691 22.1169 19.4603 22.2808 19.2964C22.4447 19.1325 22.6535 19.0209 22.8808 18.9756C23.1081 18.9304 23.3438 18.9536 23.5579 19.0423C23.772 19.131 23.955 19.2812 24.0838 19.4739C24.2126 19.6667 24.2813 19.8932 24.2813 20.125C24.2813 20.4358 24.1578 20.7339 23.9381 20.9536C23.7183 21.1734 23.4202 21.2969 23.1094 21.2969ZM25.6876 23.875C25.4557 23.875 25.229 23.8062 25.0362 23.6773C24.8434 23.5484 24.6932 23.3652 24.6046 23.1509C24.516 22.9366 24.493 22.7008 24.5384 22.4734C24.5839 22.246 24.6958 22.0372 24.86 21.8735C25.0241 21.7097 25.2332 21.5983 25.4607 21.5534C25.6883 21.5085 25.924 21.5322 26.1381 21.6213C26.3521 21.7105 26.535 21.8611 26.6634 22.0542C26.7918 22.2473 26.86 22.4742 26.8594 22.7061C26.8587 23.0164 26.7349 23.3137 26.5152 23.5328C26.2955 23.7519 25.9979 23.875 25.6876 23.875ZM25.6876 18.7188C25.4558 18.7188 25.2292 18.65 25.0365 18.5213C24.8438 18.3925 24.6936 18.2095 24.6049 17.9953C24.5162 17.7812 24.493 17.5456 24.5382 17.3183C24.5834 17.0909 24.695 16.8821 24.8589 16.7182C25.0228 16.5544 25.2316 16.4427 25.4589 16.3975C25.6863 16.3523 25.9219 16.3755 26.136 16.4642C26.3501 16.5529 26.5332 16.7031 26.6619 16.8958C26.7907 17.0885 26.8594 17.3151 26.8594 17.5469C26.8594 17.8577 26.736 18.1558 26.5162 18.3755C26.2964 18.5953 25.9984 18.7188 25.6876 18.7188ZM28.2657 21.2969C28.0339 21.2969 27.8073 21.2282 27.6146 21.0994C27.4219 20.9706 27.2717 20.7876 27.183 20.5735C27.0943 20.3593 27.0711 20.1237 27.1163 19.8964C27.1615 19.6691 27.2732 19.4603 27.437 19.2964C27.6009 19.1325 27.8097 19.0209 28.0371 18.9756C28.2644 18.9304 28.5 18.9536 28.7141 19.0423C28.9283 19.131 29.1113 19.2812 29.2401 19.4739C29.3688 19.6667 29.4376 19.8932 29.4376 20.125C29.4376 20.4358 29.3141 20.7339 29.0943 20.9536C28.8746 21.1734 28.5765 21.2969 28.2657 21.2969Z" fill="url(#paint0_linear_169_1296)"/>
<defs>
<linearGradient id="paint0_linear_169_1296" x1="6.93958" y1="22.0014" x2="35.063" y2="22.0014" gradientUnits="userSpaceOnUse">
<stop stop-color="#B0E7FF"/>
<stop offset="1" stop-color="#F5C4FF"/>
</linearGradient>
</defs>
</svg>
