<svg width="43" height="43" viewBox="0 0 43 43" fill="none" xmlns="http://www.w3.org/2000/svg">
<mask id="mask0_169_1282" style="mask-type:alpha" maskUnits="userSpaceOnUse" x="0" y="0" width="43" height="43">
<rect width="43" height="43" rx="10" fill="#D9D9D9"/>
</mask>
<g mask="url(#mask0_169_1282)">
<rect width="43" height="43" rx="10" fill="#1B1E23"/>
</g>
<path d="M21 10C22.8122 10.001 24.6006 10.4125 26.231 11.2035C27.8614 11.9945 29.2915 13.1445 30.414 14.5672C31.5364 15.9899 32.3221 17.6483 32.712 19.418C33.1019 21.1877 33.0859 23.0228 32.6653 24.7855C32.2447 26.5481 31.4303 28.1926 30.2832 29.5956C29.1362 30.9985 27.6863 32.1235 26.0424 32.886C24.3984 33.6485 22.6032 34.0288 20.7912 33.9983C18.9793 33.9678 17.1979 33.5274 15.5805 32.71L15.399 32.6125L9.9315 33.9775C9.82628 34.004 9.71657 34.0073 9.60994 33.9872C9.50331 33.9672 9.4023 33.9242 9.31389 33.8613C9.22547 33.7984 9.15176 33.7171 9.09782 33.623C9.04389 33.5288 9.01103 33.4241 9.0015 33.316V33.193L9.0225 33.0685L10.3875 27.6025L10.293 27.4225C9.60828 26.0706 9.18583 24.6012 9.048 23.092L9.0105 22.519L9 22C9 18.8174 10.2643 15.7652 12.5147 13.5147C14.7652 11.2643 17.8174 10 21 10ZM21.75 23.5H17.25L17.115 23.512C16.9421 23.5433 16.7856 23.6343 16.673 23.7692C16.5603 23.9041 16.4986 24.0743 16.4986 24.25C16.4986 24.4257 16.5603 24.5959 16.673 24.7308C16.7856 24.8657 16.9421 24.9567 17.115 24.988L17.25 25H21.75L21.885 24.988C22.0579 24.9567 22.2144 24.8657 22.327 24.7308C22.4397 24.5959 22.5014 24.4257 22.5014 24.25C22.5014 24.0743 22.4397 23.9041 22.327 23.7692C22.2144 23.6343 22.0579 23.5433 21.885 23.512L21.75 23.5ZM24.75 19H17.25L17.115 19.012C16.9421 19.0433 16.7856 19.1343 16.673 19.2692C16.5603 19.4041 16.4986 19.5743 16.4986 19.75C16.4986 19.9257 16.5603 20.0959 16.673 20.2308C16.7856 20.3657 16.9421 20.4567 17.115 20.488L17.25 20.5H24.75L24.885 20.488C25.0579 20.4567 25.2144 20.3657 25.327 20.2308C25.4397 20.0959 25.5014 19.9257 25.5014 19.75C25.5014 19.5743 25.4397 19.4041 25.327 19.2692C25.2144 19.1343 25.0579 19.0433 24.885 19.012L24.75 19Z" fill="url(#paint0_linear_169_1282)"/>
<defs>
<linearGradient id="paint0_linear_169_1282" x1="9" y1="22.0001" x2="32.9931" y2="22.0001" gradientUnits="userSpaceOnUse">
<stop stop-color="#B0E7FF"/>
<stop offset="1" stop-color="#F5C4FF"/>
</linearGradient>
</defs>
</svg>
