<svg width="43" height="43" viewBox="0 0 43 43" fill="none" xmlns="http://www.w3.org/2000/svg">
<mask id="mask0_169_1324" style="mask-type:alpha" maskUnits="userSpaceOnUse" x="0" y="0" width="43" height="43">
<rect width="43" height="43" rx="10" fill="#D9D9D9"/>
</mask>
<g mask="url(#mask0_169_1324)">
<rect width="43" height="43" rx="10" fill="#1B1E23"/>
</g>
<path d="M25.7494 26.3753C26.8997 25.7359 26.7506 23.2722 25.4175 20.8684C24.8456 19.8334 24.1425 18.9953 23.4394 18.4093C22.5986 19.0333 21.5801 19.3717 20.5331 19.375C19.4845 19.3727 18.4643 19.0342 17.6222 18.4093C16.9191 18.9953 16.2178 19.8343 15.6441 20.8684C14.31 23.2712 14.1628 25.7359 15.3159 26.3753C15.8297 26.6678 16.3716 26.4484 16.9303 25.9103C16.8257 26.49 16.7733 27.078 16.7738 27.6672C16.7738 30.4215 17.8425 32.6472 19.1578 32.6472C19.9509 32.6472 20.3438 31.8362 20.5322 30.5959C20.7197 31.8278 21.1134 32.6472 21.9009 32.6472C23.2106 32.6472 24.2878 30.4206 24.2878 27.6672C24.2878 27.0484 24.2297 26.4578 24.1303 25.9112C24.6928 26.4503 25.2328 26.6734 25.7484 26.3772L25.7494 26.3753ZM20.5313 18.4375C21.0632 18.4454 21.5913 18.3475 22.085 18.1494C22.5787 17.9513 23.0281 17.657 23.407 17.2836C23.7859 16.9102 24.0867 16.4651 24.292 15.9744C24.4973 15.4836 24.6029 14.9569 24.6027 14.425C24.6025 13.893 24.4965 13.3664 24.2909 12.8758C24.0853 12.3851 23.7841 11.9403 23.405 11.5672C23.0258 11.194 22.5763 10.9 22.0824 10.7023C21.5886 10.5045 21.0603 10.407 20.5284 10.4153C19.4753 10.4318 18.4708 10.8618 17.732 11.6125C16.9931 12.3632 16.5792 13.3744 16.5796 14.4278C16.58 15.4811 16.9946 16.492 17.7339 17.2422C18.4733 17.9924 19.4781 18.4217 20.5313 18.4375ZM28.5881 20.9818C29.4448 20.9568 30.258 20.5989 30.8551 19.9841C31.4522 19.3693 31.7863 18.5459 31.7863 17.6889C31.7863 16.8318 31.4522 16.0085 30.8551 15.3937C30.258 14.7789 29.4448 14.4209 28.5881 14.3959C27.7145 14.396 26.8768 14.7432 26.2591 15.361C25.6415 15.9788 25.2946 16.8167 25.2947 17.6903C25.2948 18.5639 25.642 19.4017 26.2598 20.0193C26.8776 20.6369 27.7155 20.9838 28.5891 20.9837L28.5881 20.9818ZM32.6006 22.9787C32.13 22.1275 31.5544 21.4393 30.9769 20.9584C30.2861 21.4702 29.4497 21.7478 28.59 21.7506C27.8813 21.7506 27.2213 21.5565 26.6438 21.235C27.1088 22.2597 27.3966 23.2975 27.45 24.2256C27.5381 25.6468 27.0938 26.7006 26.205 27.1928C26.0147 27.2977 25.8075 27.3688 25.5928 27.4028C25.5394 27.7703 25.5028 28.1528 25.5028 28.5559C25.5028 30.8181 26.3794 32.6453 27.4603 32.6453C28.1109 32.6453 28.4353 31.9797 28.5891 30.9615C28.7419 31.974 29.0653 32.6453 29.7141 32.6453C30.7875 32.6453 31.6734 30.8172 31.6734 28.5578C31.6734 28.0487 31.6238 27.564 31.5422 27.114C32.0034 27.5575 32.4478 27.7403 32.8716 27.4965C33.8156 26.9715 33.6938 24.9484 32.5997 22.9778L32.6006 22.9787ZM12.4744 20.9818C13.1255 20.9815 13.7619 20.7881 14.3031 20.426C14.8443 20.064 15.266 19.5497 15.5149 18.948C15.7638 18.3464 15.8288 17.6844 15.7015 17.0459C15.5743 16.4073 15.2605 15.8208 14.8 15.3605C14.3394 14.9003 13.7528 14.5869 13.1141 14.46C12.4755 14.3331 11.8136 14.3984 11.2121 14.6477C10.6106 14.8969 10.0965 15.3189 9.73476 15.8603C9.37306 16.4017 9.18 17.0382 9.18 17.6893C9.18025 18.563 9.52741 19.4008 10.1452 20.0185C10.7629 20.6363 11.6007 20.9835 12.4744 20.9837V20.9818ZM14.8509 27.19C13.3584 26.3603 13.2216 23.8862 14.4234 21.2331C13.8294 21.5704 13.1584 21.749 12.4753 21.7515C11.5791 21.7515 10.7578 21.4515 10.0847 20.9584C9.50813 21.4384 8.93344 22.1265 8.46094 22.9768C7.36688 24.9493 7.24688 26.9725 8.19188 27.4956C8.61375 27.7375 9.05906 27.5565 9.5175 27.115C9.43409 27.5911 9.39175 28.0735 9.39094 28.5568C9.39094 30.8181 10.2675 32.6443 11.3484 32.6443C11.9991 32.6443 12.3234 31.9787 12.4772 30.9615C12.6319 31.974 12.9553 32.6453 13.6022 32.6453C14.6775 32.6453 15.5616 30.8172 15.5616 28.5578C15.5616 28.1518 15.5241 27.7684 15.4706 27.4009C15.2536 27.3671 15.0441 27.2954 14.8519 27.189L14.8509 27.19Z" fill="url(#paint0_linear_169_1324)"/>
<defs>
<linearGradient id="paint0_linear_169_1324" x1="7.55481" y1="21.531" x2="33.507" y2="21.531" gradientUnits="userSpaceOnUse">
<stop stop-color="#B0E7FF"/>
<stop offset="1" stop-color="#F5C4FF"/>
</linearGradient>
</defs>
</svg>
