<svg width="43" height="43" viewBox="0 0 43 43" fill="none" xmlns="http://www.w3.org/2000/svg">
<mask id="mask0_169_1310" style="mask-type:alpha" maskUnits="userSpaceOnUse" x="0" y="0" width="43" height="43">
<rect width="43" height="43" rx="10" fill="#D9D9D9"/>
</mask>
<g mask="url(#mask0_169_1310)">
<rect width="43" height="43" rx="10" fill="#1B1E23"/>
</g>
<path d="M9.75 15.4375C9.75 14.1943 10.2439 13.002 11.1229 12.1229C12.002 11.2439 13.1943 10.75 14.4375 10.75H27.5625C28.8057 10.75 29.998 11.2439 30.8771 12.1229C31.7561 13.002 32.25 14.1943 32.25 15.4375V28.5625C32.25 29.8057 31.7561 30.998 30.8771 31.8771C29.998 32.7561 28.8057 33.25 27.5625 33.25H14.4375C13.1943 33.25 12.002 32.7561 11.1229 31.8771C10.2439 30.998 9.75 29.8057 9.75 28.5625V15.4375ZM21.9375 26.6875C21.9375 26.9361 22.0363 27.1746 22.2121 27.3504C22.3879 27.5262 22.6264 27.625 22.875 27.625H27.0938C27.3424 27.625 27.5808 27.5262 27.7567 27.3504C27.9325 27.1746 28.0312 26.9361 28.0312 26.6875C28.0312 26.4389 27.9325 26.2004 27.7567 26.0246C27.5808 25.8488 27.3424 25.75 27.0938 25.75H22.875C22.6264 25.75 22.3879 25.8488 22.2121 26.0246C22.0363 26.2004 21.9375 26.4389 21.9375 26.6875ZM22.875 18.25C22.6264 18.25 22.3879 18.3488 22.2121 18.5246C22.0363 18.7004 21.9375 18.9389 21.9375 19.1875C21.9375 19.4361 22.0363 19.6746 22.2121 19.8504C22.3879 20.0262 22.6264 20.125 22.875 20.125H27.0938C27.3424 20.125 27.5808 20.0262 27.7567 19.8504C27.9325 19.6746 28.0312 19.4361 28.0312 19.1875C28.0312 18.9389 27.9325 18.7004 27.7567 18.5246C27.5808 18.3488 27.3424 18.25 27.0938 18.25H22.875ZM19.7887 24.1488C19.7017 24.0614 19.5982 23.9922 19.4843 23.9449C19.3704 23.8977 19.2483 23.8733 19.125 23.8733C19.0017 23.8733 18.8796 23.8977 18.7657 23.9449C18.6518 23.9922 18.5483 24.0614 18.4613 24.1488L16.3125 26.2994L15.5738 25.5587C15.398 25.3827 15.1594 25.2837 14.9107 25.2835C14.6619 25.2834 14.4232 25.382 14.2472 25.5578C14.0711 25.7336 13.9722 25.9721 13.972 26.2209C13.9718 26.4697 14.0705 26.7083 14.2462 26.8844L15.6487 28.2887C15.7358 28.3761 15.8393 28.4453 15.9532 28.4926C16.0671 28.5398 16.1892 28.5642 16.3125 28.5642C16.4358 28.5642 16.5579 28.5398 16.6718 28.4926C16.7857 28.4453 16.8892 28.3761 16.9763 28.2887L19.7887 25.4762C19.8761 25.3892 19.9453 25.2857 19.9926 25.1718C20.0398 25.0579 20.0642 24.9358 20.0642 24.8125C20.0642 24.6892 20.0398 24.5671 19.9926 24.4532C19.9453 24.3393 19.8761 24.2358 19.7887 24.1488ZM19.7887 17.9763C19.8759 17.8891 19.9451 17.7856 19.9922 17.6717C20.0394 17.5578 20.0637 17.4358 20.0637 17.3125C20.0637 17.1892 20.0394 17.0672 19.9922 16.9533C19.9451 16.8394 19.8759 16.7359 19.7887 16.6487C19.7016 16.5616 19.5981 16.4924 19.4842 16.4453C19.3703 16.3981 19.2483 16.3738 19.125 16.3738C19.0017 16.3738 18.8797 16.3981 18.7658 16.4453C18.6519 16.4924 18.5484 16.5616 18.4613 16.6487L16.3125 18.7994L15.5738 18.0587C15.3977 17.8827 15.159 17.7838 14.91 17.7838C14.661 17.7838 14.4223 17.8827 14.2463 18.0588C14.0702 18.2348 13.9713 18.4735 13.9713 18.7225C13.9713 18.9715 14.0702 19.2102 14.2462 19.3862L15.6487 20.7887C15.7358 20.8761 15.8393 20.9453 15.9532 20.9926C16.0671 21.0398 16.1892 21.0642 16.3125 21.0642C16.4358 21.0642 16.5579 21.0398 16.6718 20.9926C16.7857 20.9453 16.8892 20.8761 16.9763 20.7887L19.7887 17.9763Z" fill="url(#paint0_linear_169_1310)"/>
<defs>
<linearGradient id="paint0_linear_169_1310" x1="9.75" y1="22" x2="32.25" y2="22" gradientUnits="userSpaceOnUse">
<stop stop-color="#B0E7FF"/>
<stop offset="1" stop-color="#F5C4FF"/>
</linearGradient>
</defs>
</svg>
