<svg width="22" height="22" viewBox="0 0 22 22" fill="none" xmlns="http://www.w3.org/2000/svg">
<path fill-rule="evenodd" clip-rule="evenodd" d="M1.96011 11C1.96011 6.46399 5.49611 1.95999 11.0001 1.95999C15.4449 1.95999 17.6433 5.24959 18.5793 6.99999H15.8001C15.5879 6.99999 15.3844 7.08427 15.2344 7.2343C15.0844 7.38433 15.0001 7.58781 15.0001 7.79999C15.0001 8.01216 15.0844 8.21564 15.2344 8.36567C15.3844 8.5157 15.5879 8.59999 15.8001 8.59999H20.6001C20.8123 8.59999 21.0158 8.5157 21.1658 8.36567C21.3158 8.21564 21.4001 8.01216 21.4001 7.79999V2.99999C21.4001 2.78781 21.3158 2.58433 21.1658 2.4343C21.0158 2.28427 20.8123 2.19999 20.6001 2.19999C20.3879 2.19999 20.1845 2.28427 20.0344 2.4343C19.8844 2.58433 19.8001 2.78781 19.8001 2.99999V5.90079C18.6737 3.91359 16.0657 0.359985 11.0001 0.359985C4.49931 0.359985 0.360107 5.69599 0.360107 11C0.360107 16.304 4.49931 21.64 11.0001 21.64C14.1105 21.64 16.6993 20.408 18.5425 18.5328C19.5196 17.5344 20.2954 16.3573 20.8273 15.0656C20.8672 14.9684 20.8876 14.8643 20.8873 14.7593C20.887 14.6542 20.866 14.5502 20.8255 14.4533C20.785 14.3563 20.7259 14.2683 20.6514 14.1942C20.5768 14.1202 20.4885 14.0615 20.3913 14.0216C20.2941 13.9817 20.19 13.9613 20.085 13.9616C19.9799 13.9619 19.876 13.9829 19.779 14.0234C19.6821 14.0639 19.594 14.123 19.52 14.1975C19.4459 14.272 19.3872 14.3604 19.3473 14.4576C18.8941 15.5577 18.2336 16.5605 17.4017 17.4112C15.8481 18.9952 13.6641 20.04 11.0001 20.04C5.49611 20.04 1.96011 15.536 1.96011 11Z" fill="white"/>
</svg>
