<svg width="30" height="30" viewBox="0 0 30 30" fill="none" xmlns="http://www.w3.org/2000/svg">
<rect width="30" height="30" rx="10" fill="#1B1E23"/>
<path d="M18.1663 17.9169C18.9331 17.4906 18.8338 15.8481 17.945 14.2456C17.5638 13.5556 17.095 12.9969 16.6263 12.6063C16.0657 13.0222 15.3868 13.2478 14.6888 13.25C13.9897 13.2485 13.3095 13.0228 12.7481 12.6063C12.2794 12.9969 11.8119 13.5563 11.4294 14.2456C10.54 15.8475 10.4419 17.4906 11.2106 17.9169C11.5531 18.1119 11.9144 17.9656 12.2869 17.6069C12.2171 17.9934 12.1822 18.3854 12.1825 18.7781C12.1825 20.6144 12.895 22.0981 13.7719 22.0981C14.3006 22.0981 14.5625 21.5575 14.6881 20.7306C14.8131 21.5519 15.0756 22.0981 15.6006 22.0981C16.4738 22.0981 17.1919 20.6138 17.1919 18.7781C17.1919 18.3656 17.1531 17.9719 17.0869 17.6075C17.4619 17.9669 17.8219 18.1156 18.1656 17.9181L18.1663 17.9169ZM14.6875 12.625C15.0421 12.6303 15.3942 12.565 15.7234 12.4329C16.0525 12.3009 16.3521 12.1047 16.6047 11.8557C16.8573 11.6068 17.0578 11.3101 17.1947 10.9829C17.3315 10.6558 17.402 10.3046 17.4018 9.94999C17.4017 9.59534 17.331 9.24427 17.194 8.91719C17.0569 8.59011 16.8561 8.29356 16.6033 8.0448C16.3506 7.79604 16.0509 7.60004 15.7216 7.46821C15.3924 7.33637 15.0402 7.27133 14.6856 7.27688C13.9835 7.28786 13.3139 7.57454 12.8213 8.07503C12.3288 8.57552 12.0528 9.24965 12.0531 9.95186C12.0533 10.6541 12.3297 11.328 12.8226 11.8282C13.3156 12.3283 13.9854 12.6145 14.6875 12.625ZM20.0588 14.3213C20.6299 14.3046 21.172 14.0659 21.5701 13.6561C21.9682 13.2462 22.1909 12.6973 22.1909 12.1259C22.1909 11.5546 21.9682 11.0057 21.5701 10.5958C21.172 10.1859 20.6299 9.94732 20.0588 9.93063C19.4764 9.93071 18.9179 10.1621 18.5061 10.574C18.0943 10.9859 17.8631 11.5445 17.8631 12.1269C17.8632 12.7093 18.0947 13.2678 18.5065 13.6795C18.9184 14.0913 19.477 14.3226 20.0594 14.3225L20.0588 14.3213ZM22.7338 15.6525C22.42 15.085 22.0363 14.6263 21.6513 14.3056C21.1907 14.6468 20.6332 14.8319 20.06 14.8338C19.5875 14.8338 19.1475 14.7044 18.7625 14.49C19.0725 15.1731 19.2644 15.865 19.3 16.4838C19.3588 17.4313 19.0625 18.1338 18.47 18.4619C18.3431 18.5318 18.205 18.5792 18.0619 18.6019C18.0263 18.8469 18.0019 19.1019 18.0019 19.3706C18.0019 20.8788 18.5863 22.0969 19.3069 22.0969C19.7406 22.0969 19.9569 21.6531 20.0594 20.9744C20.1613 21.6494 20.3769 22.0969 20.8094 22.0969C21.525 22.0969 22.1156 20.8781 22.1156 19.3719C22.1156 19.0325 22.0825 18.7094 22.0281 18.4094C22.3356 18.705 22.6319 18.8269 22.9144 18.6644C23.5438 18.3144 23.4625 16.9656 22.7331 15.6519L22.7338 15.6525ZM9.31627 14.3213C9.75035 14.321 10.1746 14.1921 10.5354 13.9507C10.8962 13.7094 11.1774 13.3665 11.3433 12.9654C11.5092 12.5643 11.5525 12.123 11.4677 11.6973C11.3829 11.2716 11.1737 10.8806 10.8667 10.5737C10.5597 10.2669 10.1685 10.0579 9.74278 9.97334C9.31703 9.88874 8.87575 9.93229 8.47474 10.0985C8.07373 10.2646 7.73099 10.546 7.48986 10.9069C7.24872 11.2678 7.12002 11.6922 7.12002 12.1263C7.12019 12.7087 7.35163 13.2672 7.76347 13.6791C8.17531 14.0909 8.73384 14.3223 9.31627 14.3225V14.3213ZM10.9006 18.46C9.90565 17.9069 9.8144 16.2575 10.6156 14.4888C10.2196 14.7136 9.77232 14.8327 9.3169 14.8344C8.7194 14.8344 8.1719 14.6344 7.72315 14.3056C7.33877 14.6256 6.95565 15.0844 6.64065 15.6513C5.91127 16.9663 5.83127 18.315 6.46127 18.6638C6.74252 18.825 7.0394 18.7044 7.34502 18.41C7.28941 18.7274 7.26119 19.049 7.26065 19.3713C7.26065 20.8788 7.84502 22.0963 8.56565 22.0963C8.9994 22.0963 9.21565 21.6525 9.31815 20.9744C9.42127 21.6494 9.6369 22.0969 10.0681 22.0969C10.785 22.0969 11.3744 20.8781 11.3744 19.3719C11.3744 19.1013 11.3494 18.8456 11.3138 18.6006C11.1691 18.5781 11.0294 18.5303 10.9013 18.4594L10.9006 18.46Z" fill="url(#paint0_linear_189_1203)"/>
<defs>
<linearGradient id="paint0_linear_189_1203" x1="6.03656" y1="14.6873" x2="23.338" y2="14.6873" gradientUnits="userSpaceOnUse">
<stop stop-color="#B0E7FF"/>
<stop offset="1" stop-color="#F5C4FF"/>
</linearGradient>
</defs>
</svg>
