<svg width="44" height="43" viewBox="0 0 44 43" fill="none" xmlns="http://www.w3.org/2000/svg">
<rect x="0.5" width="43" height="43" rx="10" fill="#1B1E23"/>
<path d="M27.3831 8.90307C27.6242 8.9633 27.8316 9.11682 27.9596 9.3299C28.0876 9.54297 28.1257 9.79814 28.0656 10.0393L27.5968 11.9143C27.5694 12.0362 27.5179 12.1514 27.4453 12.2531C27.3727 12.3548 27.2806 12.441 27.1742 12.5065C27.0679 12.5721 26.9495 12.6157 26.826 12.6349C26.7026 12.6541 26.5765 12.6484 26.4553 12.6181C26.3341 12.5879 26.2201 12.5337 26.1201 12.4588C26.0201 12.3839 25.9361 12.2897 25.873 12.1819C25.8099 12.0741 25.769 11.9547 25.7527 11.8308C25.7364 11.7069 25.7451 11.5811 25.7781 11.4606L26.2468 9.58557C26.3071 9.34442 26.4606 9.13706 26.6737 9.00908C26.8867 8.8811 27.1419 8.84297 27.3831 8.90307ZM32.9762 11.0256C33.152 11.2014 33.2507 11.4398 33.2507 11.6884C33.2507 11.937 33.152 12.1754 32.9762 12.3512L31.1012 14.2262C30.9254 14.4022 30.6869 14.5012 30.4381 14.5014C30.1894 14.5016 29.9507 14.4029 29.7747 14.2271C29.5986 14.0513 29.4996 13.8128 29.4994 13.564C29.4993 13.3153 29.5979 13.0766 29.7737 12.9006L31.6487 11.0256C31.7358 10.9383 31.8393 10.869 31.9532 10.8217C32.0671 10.7745 32.1892 10.7501 32.3125 10.7501C32.4358 10.7501 32.5579 10.7745 32.6718 10.8217C32.7857 10.869 32.8891 10.9383 32.9762 11.0256ZM18.7825 31.4368C19.253 32.2202 19.9934 32.8048 20.8646 33.0808C21.7358 33.3568 22.6778 33.3052 23.5136 32.9356C24.3494 32.5661 25.0215 31.9041 25.4036 31.0739C25.7857 30.2438 25.8515 29.3027 25.5887 28.4274L18.7825 31.4368ZM17.0575 32.1981L15.1862 33.0268C14.7021 33.2407 14.1646 33.3032 13.6443 33.2062C13.1239 33.1091 12.6451 32.8571 12.2706 32.4831L11.5206 31.7349C11.1461 31.3636 10.8931 30.8873 10.795 30.369C10.6969 29.8508 10.7583 29.315 10.9712 28.8324L18.2293 12.3174C18.4013 11.9274 18.6657 11.5852 18.9996 11.3203C19.3335 11.0553 19.7268 10.8757 20.1457 10.7969C20.5646 10.718 20.9964 10.7424 21.4037 10.8678C21.8111 10.9933 22.1817 11.216 22.4837 11.5168L32.4812 21.4843C32.7824 21.7847 33.0058 22.154 33.132 22.5603C33.2582 22.9665 33.2834 23.3974 33.2055 23.8156C33.1275 24.2337 32.9488 24.6266 32.6847 24.9601C32.4206 25.2936 32.0792 25.5576 31.69 25.7293L27.3118 27.6643C27.7746 28.9981 27.719 30.4571 27.1559 31.7518C26.5928 33.0464 25.5635 34.082 24.2722 34.6528C22.981 35.2237 21.5223 35.2882 20.1858 34.8334C18.8492 34.3787 17.7326 33.438 17.0575 32.1981ZM34.1875 16.3749H32.3125C32.0638 16.3749 31.8254 16.4737 31.6496 16.6495C31.4737 16.8253 31.375 17.0638 31.375 17.3124C31.375 17.5611 31.4737 17.7995 31.6496 17.9754C31.8254 18.1512 32.0638 18.2499 32.3125 18.2499H34.1875C34.4361 18.2499 34.6746 18.1512 34.8504 17.9754C35.0262 17.7995 35.125 17.5611 35.125 17.3124C35.125 17.0638 35.0262 16.8253 34.8504 16.6495C34.6746 16.4737 34.4361 16.3749 34.1875 16.3749Z" fill="url(#paint0_linear_189_1407)"/>
<defs>
<linearGradient id="paint0_linear_189_1407" x1="10.7495" y1="22.0042" x2="35.125" y2="22.0042" gradientUnits="userSpaceOnUse">
<stop stop-color="#B0E7FF"/>
<stop offset="1" stop-color="#F5C4FF"/>
</linearGradient>
</defs>
</svg>
